<svg xmlns="http://www.w3.org/2000/svg" viewBox="0 0 24 24" width="24" height="24" fill="none" stroke="currentColor" stroke-width="1.6" stroke-linecap="round" stroke-linejoin="round"><path d="M12 3.5c-4.7 0-8.5 3.6-8.5 8.1 0 3.4 2.2 5.4 4.4 5.4.9 0 1.5-.5 1.5-1.3 0-.4-.2-.7-.4-1-.2-.3-.4-.6-.4-1 0-.8.7-1.5 1.5-1.5h1.9c2.6 0 4.7-1.9 4.7-4.4 0-2.3-1.9-4.3-4.7-4.3z"></path><circle cx="8.6" cy="10.4" r="0.9" fill="currentColor" stroke="none"></circle><circle cx="11.4" cy="7.7" r="0.9" fill="currentColor" stroke="none"></circle><circle cx="14.7" cy="8.8" r="0.9" fill="currentColor" stroke="none"></circle></svg>
